<svg id="Layer_1" data-name="Layer 1" xmlns="http://www.w3.org/2000/svg" viewBox="0 0 600 300"><defs><style>.cls-1,.cls-2,.cls-3{fill:none;stroke:#000;stroke-miterlimit:10;}.cls-2{stroke-width:3px;}.cls-3{stroke-width:5px;}.cls-4{font-size:115px;font-family:Perpetua-Bold, Perpetua;font-weight:700;}</style></defs><title>mernbanner</title><circle class="cls-1" cx="102.5" cy="204.5" r="59.5"/><circle class="cls-1" cx="233.5" cy="204.5" r="59.5"/><circle class="cls-1" cx="364.5" cy="204.5" r="59.5"/><circle class="cls-1" cx="495.5" cy="204.5" r="59.5"/><path class="cls-2" d="M190.5,204.5h43s2-27-22-27-21,28-21,28-1,26,21,25,20-17,20-17"/><line class="cls-2" x1="238" y1="182" x2="274" y2="229"/><line class="cls-2" x1="235" y1="229" x2="272" y2="182"/><ellipse class="cls-2" cx="363.88" cy="204.76" rx="17.88" ry="48.57" transform="translate(-53.17 224.73) rotate(-32.11)"/><ellipse class="cls-2" cx="364.88" cy="203.76" rx="48.57" ry="17.88" transform="translate(5.98 417.87) rotate(-60)"/><ellipse class="cls-2" cx="364.65" cy="204.82" rx="48.35" ry="18.82"/><circle cx="364.5" cy="204.5" r="9"/><path class="cls-3" d="M486.5,239.5l9,6,34-20v-41l-34-21-34,19v41s15,12,20,8l1-40"/><path class="cls-3" d="M516.5,197.5s-15-16-23,0c0,0-3,9,23,10,0,0,6,12-12,12a20,20,0,0,1-13-6"/><path class="cls-1" d="M102.5,246.5s-24-17-24-45S101,156,101,156l1-4Z"/><path class="cls-1" d="M102.5,246.5s24-17,24-45S104,156,104,156l-1-4Z"/><rect x="101.5" y="245.5" width="2" height="12"/><text class="cls-4" transform="translate(42.68 129.02)"><tspan xml:space="preserve">M  E   R  N </tspan></text></svg>